<svg xmlns="http://www.w3.org/2000/svg" width="932" height="243" viewBox="0 0 932 243"><title>AG Connect logo</title><path fill="#00ace2" d="M231.1,115.55a115.06,115.06,0,0,0-25.34-72.2h0V74.87H191.39c-.46-15.48-9.57-29.72-25.18-29.72-17.91,0-26.41,13.45-26.41,40.51s8.5,40,26.41,40c5.88,0,13-2.34,13-9.69v-13.3c0-3.91-2.16-6.26-6-6.26h-8V82.69h56.23V96.45h-7.1c-3.87,0-6,2.35-6,6.26v36H194.79l-3.4-7.66c-8.95,7-20.39,9.54-30.43,9.54-22.54,0-40.36-9.1-49-26.62v37.47c0,6.81.69,9.39,4.38,9.39,5.07,0,7.6-3.05,7.6-16.2v-5.4h12.67v12.92c0,23.47-8.75,30.75-34.33,30.75-11.05,0-21.88-5.4-25.57-16.67-9.44,11.51-20.5,16.67-35.47,16.67-9.44,0-17.32-1.62-23.25-5.37a115.55,115.55,0,0,0,179,20.05l31,.94-9.51-30.27A115.13,115.13,0,0,0,231.1,115.55Z"/><path fill="#00ace2" d="M5.8,151.76c0-.51,0-1,0-1.52,0-44.38,68.42-18.32,68.42-49.07,0-15.5-9.68-20.66-22.35-20.66-6.22,0-12.67.94-18.2,4.46v.47c6.91.94,14.52,4.69,14.52,12.91,0,10.33-9,14.79-18.2,14.79-10.83,0-20-6.34-20-17.37C9.92,69.71,44.7,66,63.36,66c21.13,0,35.74,3.38,43.1,15.89,2.06-32.19,23.26-51.23,54.5-51.23,9,0,20.08,3,27.81,10.48l3.09-8.76h3.84A115.57,115.57,0,0,0,5.8,151.76Z"/><path fill="#00ace2" d="M44,147.65c0,9.63,6,13.15,13.13,13.15,13.13,0,16.59-9.86,16.59-19.72v-16C62.67,131.69,44,133.1,44,147.65Z"/><polygon fill="#1d1d1b" points="462.02 135.13 491.82 135.13 491.82 64.88 492.13 64.88 546.72 135.13 576.52 135.13 576.52 20.48 546.72 20.48 546.72 90.58 546.41 90.58 491.82 20.48 462.02 20.48 462.02 135.13"/><path fill="#1d1d1b" d="M908.15,76.26h24.64V51H853.72V76.26h24.63v89.41h29.8Zm-57.93-22.5A69.93,69.93,0,0,0,823,48a62.16,62.16,0,0,0-43.64,18.55,60,60,0,0,0-16.88,42c0,17,5.78,31.93,18.4,43.34a63.86,63.86,0,0,0,43,16.87c9.28,0,16.43-2.28,26.31-5.32V127.66a34.26,34.26,0,0,1-25.7,12.16c-18.55,0-31-13.07-31-31.17,0-17.79,12.32-31.78,30.56-31.78,10.2,0,20.08,4.41,26.16,12.62Zm-89.71,22.5V51H695.27V165.67h65.24V140.43H725.08V120.67h33.6V95.42h-33.6V76.26Zm-184,89.41h29.8V95.42h.31l54.58,70.25H691V51H661.21v70.1h-.3L606.32,51h-29.8Z"/><path fill="#1d1d1b" d="M329.62,22.79A69.92,69.92,0,0,0,302.41,17a62.13,62.13,0,0,0-43.65,18.55,60,60,0,0,0-16.87,42c0,17,5.77,31.93,18.4,43.33a63.8,63.8,0,0,0,43,16.88c9.27,0,16.42-2.28,26.3-5.32V96.69a34.26,34.26,0,0,1-25.69,12.16c-18.56,0-31-13.08-31-31.17,0-17.79,12.31-31.78,30.56-31.78,10.19,0,20.07,4.41,26.15,12.62Z"/><path fill="#1d1d1b" d="M394.86,46c17.5,0,31.85,14.2,31.85,29.75,0,19.44-14.35,33.65-31.85,33.65S363,95.2,363,75.76C363,60.21,377.37,46,394.86,46m0-28.41c-32.44,0-62.35,23.92-62.35,58,0,36.49,26.17,62.2,62.35,62.2s62.35-25.71,62.35-62.2c0-34.09-29.9-58-62.35-58"/><path fill="#1d1d1b" d="M923.2,193.14h9.59v-9.82H902v9.82h9.59v34.78H923.2Zm-30.64-9.82H881v44.6h11.6Zm-60.64,18.75-1.59,1.72.23.59h4.14v17.45c0,3.9-.41,4.2-4.2,4.55v1.54h14v-1.48c-4.67-.47-5.08-.65-5.08-5v-17h6.39a2.06,2.06,0,0,0,.59-2.31h-7V199.7c-.06-5,.59-7.86,1.36-9a3.41,3.41,0,0,1,3.13-1.77,7.36,7.36,0,0,1,4.79,2.19,1,1,0,0,0,1.6.17,3.38,3.38,0,0,0,1.13-1.42,2,2,0,0,0-.3-2.07,6.41,6.41,0,0,0-4.67-2,12,12,0,0,0-6.51,3.2,14.37,14.37,0,0,0-4.56,6.92,16.74,16.74,0,0,0-.65,4.85v1.3Zm-23.42,1.24c5.14,0,7.92,5.62,7.92,12.55,0,8.1-3,10.82-6.68,10.82-4.85,0-8.11-5.56-8.11-13,0-6.69,3.2-10.36,6.87-10.36m.59-1.95c-5.39,0-13,4.44-13,14.2a12.81,12.81,0,0,0,13,13.07c5.85,0,12.84-4.55,12.84-14.08a12.84,12.84,0,0,0-12.84-13.19m-49,21.54a10,10,0,0,1-5.68,2c-3.79,0-8.11-3.44-8.11-10.47,0-8.58,5-10.89,7.69-10.89a7.36,7.36,0,0,1,6.1,3Zm9.16,2-1.89-.18c-2.19-.24-2.6-.53-2.6-3.61V185.8a54.51,54.51,0,0,1-9.23,2.07v1.42c4.26.3,4.56.48,4.56,4.38V202a13.79,13.79,0,0,0-3.91-.65c-8,0-15.26,6.45-15.26,14.67s6.21,12.6,10.94,12.6a10.38,10.38,0,0,0,4.62-1.71l3.61-2.13v3.84a62,62,0,0,1,9.16-2.25Zm-36.79,3v-1.54c-3.79-.35-4.26-.7-4.26-4.61v-36a45.11,45.11,0,0,1-8.76,2.07v1.42c3.73.3,4.08.48,4.08,4.5v28c0,3.91-.53,4.26-4.25,4.61v1.54ZM702,207.63v-6.45a33,33,0,0,1-8.34,2.43v1.3c3.37.47,3.67.71,3.67,4.62v12.24c0,3.91-.42,4.26-4.08,4.61v1.54h13.6v-1.54c-4.55-.35-4.85-.7-4.85-4.61V210.94c1.3-3.31,3.2-5.08,4.73-5.08a3.18,3.18,0,0,1,2.49,1.24,1.38,1.38,0,0,0,1.6.12,3.34,3.34,0,0,0,1.89-2.9,3.29,3.29,0,0,0-3.43-3c-2.84,0-5.38,3.31-7.16,6.27Zm-30.94-4.32c5.15,0,7.93,5.62,7.93,12.55,0,8.1-3,10.82-6.69,10.82-4.85,0-8.1-5.56-8.1-13,0-6.69,3.19-10.36,6.86-10.36m.59-1.95c-5.38,0-12.95,4.44-12.95,14.2a12.81,12.81,0,0,0,12.95,13.07c5.86,0,12.84-4.55,12.84-14.08a12.83,12.83,0,0,0-12.84-13.19m-19.34.71H641.61v1.48c3.85.53,4.2.89,3.43,4-1.06,4.38-2.72,9.53-4,13.61h-.12c-2.48-6.33-4.91-12.6-7.1-18.75h-1.54c-2.48,6.8-4.67,12.89-6.86,18.57h-.12c-1.48-4.55-3-9.23-4.32-13.78-.88-2.66-.59-3,3-3.61v-1.48H611.68v1.48c2.84.41,3.37.83,4.43,3.91,2.43,7.09,4.68,14.07,6.81,21.11h1.71c2.31-6.56,4.74-12.48,7-18.39,2.43,6.21,4.85,12,7.22,18.39h1.66c2.72-8,5.32-15.91,7.1-20.58,1.24-3.26,1.77-4,4.73-4.44Zm-78.62,26.5a15.15,15.15,0,0,1,5.68.77,4.3,4.3,0,0,1,2.72,4.2c0,3.67-2.9,6.57-8.52,6.57-4.38,0-7.81-2.42-7.81-5.62a6.36,6.36,0,0,1,2.72-4.61c1.07-.95,2.37-1.31,5.21-1.31m-1.3-25.43c3.37,0,5.56,3.31,5.56,8s-2.31,7-4.91,7c-3.32,0-5.56-3.31-5.56-7.92s2.3-7.1,4.91-7.1M586.71,202a68.26,68.26,0,0,1-8,.83,11.76,11.76,0,0,0-5.68-1.48c-4.56,0-10.59,3.08-10.59,9.82a8.55,8.55,0,0,0,5.2,7.93,12.77,12.77,0,0,1-5.2,3.61,4.45,4.45,0,0,0,.65,2.48,7.89,7.89,0,0,0,4.38,3.25,55.91,55.91,0,0,0-4.91,4.15,4.58,4.58,0,0,0-1.42,3.31c.06,3.37,3.66,7.22,10.23,7.22,7.87,0,14.79-5.74,14.79-11.72,0-5.79-4.85-7-8.52-7-2,0-4.08.06-6.21.06-2.66,0-3.73-1.12-3.73-2.31a3.72,3.72,0,0,1,1.78-2.42,24.53,24.53,0,0,0,3,.29c5,0,10.35-3.07,10.35-9.46a7.92,7.92,0,0,0-1.78-5.26l3.37.17a9.36,9.36,0,0,0,2.67-3Zm-33.6,25.91v-1.54c-3.43-.35-3.73-.59-3.73-4.61V210.35c0-5.74-3-9-7.63-9a9.06,9.06,0,0,0-4.91,1.78c-1.48,1-2.78,1.89-4,2.78v-4.74a35.29,35.29,0,0,1-8.23,2.43V205c3.2.59,3.55.77,3.55,4.56v12.24c0,3.91-.29,4.2-4.31,4.61v1.54h12.83v-1.54c-3.49-.35-3.84-.59-3.84-4.61v-13.9c1.77-1.54,4.08-3,6.45-3,4,0,5.38,2.66,5.38,6.75v9.87c0,4.09-.41,4.56-3.9,4.91v1.54Zm-37.21,0v-1.54c-3.79-.35-4.2-.7-4.2-4.73V201.24a36.78,36.78,0,0,1-8.4,2.31V205c3.55.59,3.73.83,3.73,4.5v12.18c0,4-.42,4.38-4.14,4.73v1.54ZM509,196.21a3,3,0,0,0,3-3,3,3,0,0,0-3-3.08,3,3,0,0,0-3,3.08,3.09,3.09,0,0,0,3,3m-15.27,23.55-.76,1.42c-2.25,3.55-3.44,4.79-7.93,4.79h-5.86c4.85-7.93,9.59-15.5,14.44-23.07l-.36-.83h-13.6c-2.19,0-2.9-.35-3.26-1.3h-1.24c-.47,2.54-1.36,6.33-2,8.58l1.48.53.83-1.6c1.65-3.31,2.42-4.26,6.68-4.26h5.26c-4.85,7.93-9.64,15.5-14.72,23l.35.88h19.52c.89-2.36,1.84-5.14,2.72-7.45ZM455.8,223a8.4,8.4,0,0,1-4.74,2.13,4.33,4.33,0,0,1-4.2-4.55c0-2.13,1.3-3.26,3.61-4.32,1.24-.59,4.08-1.83,5.33-2.48Zm9.34,2.67-.59-1.54a4.54,4.54,0,0,1-2.13.65c-1,0-2.07-.89-2.07-3.55v-11c0-3.08-.59-5.51-2.66-7.22a7.69,7.69,0,0,0-4.85-1.6A26.56,26.56,0,0,0,444,205.5c-1.12.83-1.89,1.48-1.89,2.37a2.89,2.89,0,0,0,2.6,2.54,1.65,1.65,0,0,0,1.72-1.36,8.55,8.55,0,0,1,1.77-3.9,3.36,3.36,0,0,1,2.67-1.19c2.95,0,5,2.43,5,6.69v1.06c-1.31,1.07-5.63,2.67-9.17,3.85-3.26,1.12-4.8,3-4.8,5.86a7.14,7.14,0,0,0,7.1,7.21c1.78,0,4.62-2.19,7-3.78a6.22,6.22,0,0,0,1.42,2.66,4.85,4.85,0,0,0,2.78,1.12ZM433,227.92v-1.54c-3.37-.35-3.85-.59-3.85-4.55V210.41c0-5.8-2.9-9-7.51-9a8.18,8.18,0,0,0-4.44,1.54,56.66,56.66,0,0,0-4.91,3.31,7.06,7.06,0,0,0-6.56-4.85,8.79,8.79,0,0,0-4.86,1.6c-1.77,1.12-3.07,2.19-4.31,3v-4.8a35.66,35.66,0,0,1-8.23,2.43V205c3.44.53,3.61.83,3.61,4.62v12.24c0,3.85-.53,4.2-4.43,4.55v1.54H400v-1.54c-2.9-.35-3.37-.7-3.37-4.55v-13.9c1.77-1.48,4.08-3.08,6.44-3.08,3.61,0,5.15,2.43,5.15,6.81v10.17c0,3.9-.53,4.2-4.2,4.55v1.54h12.66v-1.54c-3.25-.35-3.78-.7-3.78-4.43V210.41a13.63,13.63,0,0,0-.18-2.48c2.25-1.9,4.49-3.08,6.62-3.08,3.73,0,5.21,2.66,5.21,6.86v9.88c0,4.2-.65,4.44-4.14,4.79v1.54Zm-61.59-5a8.34,8.34,0,0,1-4.73,2.13,4.33,4.33,0,0,1-4.2-4.55c0-2.13,1.3-3.26,3.61-4.32,1.24-.59,4.08-1.83,5.32-2.48Zm9.35,2.67-.59-1.54a4.54,4.54,0,0,1-2.13.65c-1,0-2.07-.89-2.07-3.55v-11c0-3.08-.59-5.51-2.66-7.22a7.69,7.69,0,0,0-4.85-1.6,26.46,26.46,0,0,0-8.88,4.14c-1.12.83-1.89,1.48-1.89,2.37a2.89,2.89,0,0,0,2.6,2.54,1.65,1.65,0,0,0,1.72-1.36,8.55,8.55,0,0,1,1.77-3.9,3.34,3.34,0,0,1,2.66-1.19c3,0,5,2.43,5,6.69v1.06c-1.3,1.07-5.62,2.67-9.17,3.85-3.25,1.12-4.79,3-4.79,5.86a7.14,7.14,0,0,0,7.1,7.21c1.78,0,4.62-2.19,7-3.78a6.22,6.22,0,0,0,1.42,2.66,4.85,4.85,0,0,0,2.78,1.12Zm-61.46-22.07c3.25,0,5.26,2.84,5.2,5.92,0,.82-.35,1.18-1.42,1.18-3.43.12-6.68.18-10,.18.88-4.8,3.49-7.28,6.21-7.28m9.05,18.1a9.68,9.68,0,0,1-6.75,3c-4.14,0-8.75-3.31-8.81-11.36,7-.24,14.43-.83,15.44-1s1.36-.71,1.36-1.9a9.16,9.16,0,0,0-8.87-9,12,12,0,0,0-8.7,4.32,15.2,15.2,0,0,0-3.9,10.35c0,6.69,4.26,12.6,11.53,12.6,1.84,0,5.92-1.06,9.64-5.73Zm-28.75,6.27v-1.54c-3.49-.29-3.91-.65-3.91-4.55V211.48c0-7.1-3.37-10.12-8.16-10.12-3.2,0-6.39,2.19-8.46,4.32V185.8a64.3,64.3,0,0,1-8.7,2.07v1.36c3.91.36,4,.65,4,4.38v28.22c0,3.9-.54,4.26-4.09,4.55v1.54h12.55v-1.54c-3.5-.35-3.79-.76-3.79-4.55V207.75a8.36,8.36,0,0,1,6.15-3c4,0,5.8,2.43,5.8,7.28v9.82c0,3.85-.48,4.2-3.91,4.55v1.54Zm-36.44-2.13-.54-1.54a8.34,8.34,0,0,1-3.66,1c-1.48,0-3.44-.89-3.44-5.68v-15.2h6.33a1.68,1.68,0,0,0,.36-2.31h-6.69V194l-.82-.12-3.85,3.9v4.32h-2.72l-1.6,1.72.24.59h4.08v17.21c0,4.68,2.07,7,5.8,7a5.86,5.86,0,0,0,2.48-.77Z"/></svg>
